<?xml version="1.0" encoding="utf-8" ?>
<!-- Generated by AutoXChange 64-bit  V22.10.58a from Tailor Made Software -->
<!-- www.tailormade.com -->
<!DOCTYPE svg PUBLIC '-//W3C//DTD SVG 1.0//EN' 
'http://www.w3.org/TR/2001/REC-SVG-20010904/DTD/svg10.dtd'>
<svg contentScriptType="text/ecmascript" xmlns:xlink="http://www.w3.org/1999/xlink" zoomAndPan="magnify" 
contentStyleType="text/css" preserveAspectRatio="xMidYMid meet" 
width="2371.39" height="2007" viewBox="0 0 2371.39 2007" 
version="1.1" xmlns="http://www.w3.org/2000/svg" xmlns:cvjs="http://www.tailormade.com/" stroke-linecap="butt" stroke-linejoin="round" fill-rule="evenodd" >
<defs>
	<style id="cv_styles" type = "text/css">
	    <![CDATA[
	    svg{ background-color: white; opacity: 1.}
		:root {
		    --tmsMinLineWidth: 0.6;
		    --tmsMinDashLength: 0.6;
		    --tmsHLWidth: 0.6;
		    --tmsNumberOfLayouts: 1;
		    --tmsNumberOfSVGViewports: 0;
         --tmsMinFixedLineWidth: 0.2;
		    --tmsbPostFix: 1;
		    --tmsPostFix: "gtk";
		}
		.tmsPoints {
		    fill: none;
		    stroke-width: var(--tmsMinLineWidth);
		    r: calc(var(--tmsMinLineWidth)/2.0);
		}
		.ZWhl {
		    stroke-width: var(--tmsHLWidth);
		}
		.ZW {
		    stroke-width: var(--tmsMinLineWidth);
		}
		.ZW6 {
		    stroke-width: calc(var(--tmsMinLineWidth)*6);
		}
		.ZW10 {
		    stroke-width: calc(var(--tmsMinLineWidth)*10);
		}
		.ZW20 {
		    stroke-width: calc(var(--tmsMinLineWidth)*20);
		}
		.ZW100 {
		    stroke-width: calc(var(--tmsMinLineWidth)*100);
		}
		.nZW {
		}
		.sLW_0_2{
		    stroke-width: var(--tmsMinFixedLineWidth);
		}
		.sLW_0_6{
		    stroke-width: calc(var(--tmsMinFixedLineWidth)*3);
		}
		.hyperlinks:hover {
		    stroke-width: 3;
		}
		.hyperimage image{
			opacity: 0;
		}
		.hyperimage:hover image{
			opacity: 1;
		}
		.hyperimage:hover path{
			stroke-width: 3;
		}
		.hyperimage:visited{
			color: red;
		}
	]]></style>
	</defs>
<metadata>
<text id="cadviewer_worldUnits_gtk">
{ "globalOrigin": { "x": -136.767903, "y" : -196.014668}, 
						"units": "mm",
						"measurementType": "Metric",
						"lengthType": "Decimal",
						"lengthPrecision": 4,
						"blockUnitsFormat": "Millimeters",
						"svgToWorldUnits": 0.260013,
						"worldToSVGUnits": 3.845967
}
</text>
<text id="cadviewer_drawingCoordinates_gtk">
{ "DWG": 
    { "lowerLeft": { "x": -136.767903, "y" : -196.014668}, 
      "upperRight": { "x": 479.824664, "y" : 325.830703} 
    },
 "SVG": 
    { "lowerLeft": { "x": 64.302712, "y" : 2007.000000}, 
      "upperRight": { "x": 2435.697288, "y" : 0.000000} 
    },
 "Drawing Height": 2007
}
</text>
<text id="cadviewer_vqBuilding_gtk"></text>
<text id="cadviewer_vqFloor_gtk"></text>
<text id="cadviewer_multiPages_gtk">
{ "multiPages": 3, 
                   "currentPage":2,
                   "pages" : [
                        { "fileName":"f1969871199__ModelSpace", "pageName":"ModelSpace"},
                        { "fileName":"f1969871199", "pageName":"\uBC30\uCE581"},
                        { "fileName":"f1969871199_Layout__uBC30_uCE582", "pageName":"\uBC30\uCE582"}
                   ]
}
</text>
</metadata>
<g id="cv_main_drawing">
<g id="layer_gtk_0" class="layer_gtk_0"  cvjs:layerName="0" cvjs:plottable="YES"
 cvjs:status="ON" visibility="visible">
<g id="cvclr_gtk_1" stroke="none" fill="#00F" opacity="1.">
<path id="cv_gtk_2" class="cvjs_handles AcDbSolid" cvjs:handle='E32' d="M1841.33,434.27l30.77,5.13l-30.77,5.13v-10.26 Z "/>
<path id="cv_gtk_3" class="cvjs_handles AcDbSolid" cvjs:handle='E33' d="M941.37,434.27l-30.77,5.13l30.77,5.13v-10.26 Z "/>
<path id="cv_gtk_4" class="cvjs_handles AcDbSolid" cvjs:handle='DD5' d="M879.83,434.27l30.77,5.13l-30.77,5.13v-10.26 Z "/>
<path id="cv_gtk_5" class="cvjs_handles AcDbSolid" cvjs:handle='DD6' d="M556.77,434.27l-30.77,5.13l30.77,5.13v-10.26 Z "/>
<path id="cv_gtk_6" class="cvjs_handles AcDbSolid" cvjs:handle='E29' d="M469.26,514.71l5.13,-30.77l5.13,30.77h-10.26 Z "/>
<path id="cv_gtk_7" class="cvjs_handles AcDbSolid" cvjs:handle='E2A' d="M469.26,1222.37l5.13,30.77l5.13,-30.77h-10.26 Z "/>
<path id="cv_gtk_8" class="cvjs_handles AcDbSolid" cvjs:handle='E17' d="M978.79,459.26l-25.38,-18.13l18.13,25.38l7.25,-7.25 Z "/>
<path id="cv_gtk_9" class="cvjs_handles AcDbSolid" cvjs:handle='E18' d="M1704.47,1184.94l18.13,25.38l-25.38,-18.13l7.25,-7.25 Z "/>
<path id="cv_gtk_10" class="cvjs_handles AcDbSolid" cvjs:handle='DE9' d="M2089.36,817.76l-29.06,11.33l31.17,-1.29l-2.1,-10.04 Z "/>
<path id="cv_gtk_11" class="cvjs_handles AcDbSolid" cvjs:handle='DF0' d="M1723.38,702.2l17.28,25.97l-24.77,-18.96l7.49,-7.01 Z "/>
<path id="cv_gtk_12" class="cvjs_handles AcDbSolid" cvjs:handle='DF1' d="M2028.29,1027.87l-24.77,-18.96l17.28,25.97l7.49,-7.01 Z "/>
<path id="cv_gtk_13" class="cvjs_handles AcDbSolid" cvjs:handle='1047' d="M1394.22,1011.33l24.6,-19.17l-17.06,26.12l-7.55,-6.94 Z "/>
<path id="cv_gtk_14" class="cvjs_handles AcDbSolid" cvjs:handle='1048' d="M1317.13,1222.61l-6.41,30.53l-3.84,-30.95l10.25,0.43 Z "/>
<path id="cv_gtk_15" class="cvjs_handles AcDbSolid" cvjs:handle='1062' d="M941.57,820.33l-30.97,-3.7l30.5,-6.55l0.47,10.24 Z "/>
<path id="cv_gtk_16" class="cvjs_handles AcDbSolid" cvjs:handle='1063' d="M1119.65,736.12l26.19,-16.94l-19.28,24.52l-6.91,-7.58 Z "/>
<path id="cv_gtk_17" class="cvjs_handles AcDbSolid" cvjs:handle='106D' d="M1018.12,1282.96l9.14,-29.82l1.03,31.18l-10.17,-1.35 Z "/>
<path id="cv_gtk_18" class="cvjs_handles AcDbSolid" cvjs:handle='106E' d="M879.43,1135.45l31.18,1.03l-29.82,9.14l-1.35,-10.17 Z "/>
<path id="cv_gtk_19" class="cvjs_handles AcDbSolid" cvjs:handle='108D' d="M1455.88,1284.18l2.97,-31.05l7.26,30.34l-10.23,0.71 Z "/>
<path id="cv_gtk_20" class="cvjs_handles AcDbSolid" cvjs:handle='108E' d="M1546.68,1423.02l22.64,21.45l-28.38,-12.95l5.73,-8.5 Z "/>
<path id="cv_gtk_21" class="cvjs_handles AcDbSolid" cvjs:handle='1083' d="M898.91,1432.71l-18.9,24.81l9.84,-29.6l9.07,4.79 Z "/>
<path id="cv_gtk_22" class="cvjs_handles AcDbSolid" cvjs:handle='1084' d="M928.49,1283.69l6.28,-30.55l3.97,30.94l-10.25,-0.39 Z "/>
<path id="cv_gtk_23" class="cvjs_handles AcDbSolid" cvjs:handle='1078' d="M1470.93,1674.54l-21.26,-22.83l27.51,14.7l-6.25,8.13 Z "/>
<path id="cv_gtk_24" class="cvjs_handles AcDbSolid" cvjs:handle='1079' d="M1273.85,1720.9l16.48,-26.49l-7,30.4l-9.48,-3.91 Z "/>
<path id="cv_gtk_25" class="cvjs_handles AcDbSolid" cvjs:handle='E20' d="M1728.65,1316.87l19.82,-24.08l-10.94,29.21l-8.88,-5.13 Z "/>
<path id="cv_gtk_26" class="cvjs_handles AcDbSolid" cvjs:handle='E21' d="M1470.97,1763.18l-10.94,29.21l19.82,-24.08l-8.88,-5.13 Z "/>
<path id="cv_gtk_27" class="cvjs_handles AcDbSolid" cvjs:handle='E3B' d="M521,1323.34l-29.21,-10.94l24.08,19.82l5.13,-8.88 Z "/>
<path id="cv_gtk_28" class="cvjs_handles AcDbSolid" cvjs:handle='E3C' d="M1333.05,1792.17l24.08,19.82l-29.21,-10.94l5.13,-8.88 Z "/>
</g>
<g id="cvclr_gtk_29" stroke="#000" fill="none">
<path id="cv_gtk_30" class="ZW cvjs_handles AcDbLine" cvjs:handle='29E' d="M526,1253.13H910.6" />
<path id="cv_gtk_31" class="ZW cvjs_handles AcDbLine" cvjs:handle='29F' d="M910.6,1253.13L910.6,483.94" />
<path id="cv_gtk_32" class="ZW cvjs_handles AcDbLine" cvjs:handle='2A0' d="M910.6,483.94H526" />
<path id="cv_gtk_33" class="ZW cvjs_handles AcDbLine" cvjs:handle='2A1' d="M526,483.94L526,1253.13" />
<path id="cv_gtk_34" class="ZW cvjs_handles AcDbLine" cvjs:handle='2ED' d="M1872.09,868.54H910.6" />
<path id="cv_gtk_35" class="ZW cvjs_handles AcDbLine" cvjs:handle='3EA' d="M910.6,1253.13H1679.79" />
<path id="cv_gtk_36" class="ZW cvjs_handles AcDbLine" cvjs:handle='3EB' d="M910.6,483.94L1679.79,1253.13" />
<path id="cv_gtk_37" class="ZW cvjs_handles AcDbLine" cvjs:handle='5B1' d="M526,1253.13L1391.35,1752.74" />
<path id="cv_gtk_38" class="ZW cvjs_handles AcDbLine" cvjs:handle='598' d="M1679.79,1253.13L1391.35,1752.74" />
<path id="cv_gtk_39" class="ZW cvjs_handles AcDbLine" cvjs:handle='10A2' d="M0,-0L0,2007" />
<path id="cv_gtk_40" class="ZW cvjs_handles AcDbLine" cvjs:handle='10A3' d="M0,2007H2371.39" />
<path id="cv_gtk_41" class="ZW cvjs_handles AcDbLine" cvjs:handle='10A4' d="M2371.39,2007L2371.39,-0" />
<path id="cv_gtk_42" class="ZW cvjs_handles AcDbLine" cvjs:handle='10A5' d="M2371.39,-0H0" />
<circle id="cv_gtk_43" class="cvjs_handles AcDbCircle ZW" cvjs:handle='2A2' cx="1872.09" cy="868.54" r="192.298343" />
</g>
<g id="cvclr_gtk_44" stroke="#00F" fill="none">
<path id="cv_gtk_45" class="ZW cvjs_handles AcDbLine" cvjs:handle='E2F' d="M1872.09,837.77L1872.09,434.59" />
<path id="cv_gtk_46" class="ZW cvjs_handles AcDbLine" cvjs:handle='E30' d="M910.6,837.77L910.6,434.59" />
<path id="cv_gtk_47" class="ZW cvjs_handles AcDbLine" cvjs:handle='E31' d="M1841.33,439.4H941.37" />
<path id="cv_gtk_48" class="ZW cvjs_handles AcDbLine" cvjs:handle='DD2' d="M910.6,453.17l0,-18.58" />
<path id="cv_gtk_49" class="ZW cvjs_handles AcDbLine" cvjs:handle='DD3' d="M526,453.17l0,-18.58" />
<path id="cv_gtk_50" class="ZW cvjs_handles AcDbLine" cvjs:handle='DD4' d="M879.83,439.4H556.77" />
<path id="cv_gtk_51" class="ZW cvjs_handles AcDbLine" cvjs:handle='E26' d="M495.24,483.94h-25.66" />
<path id="cv_gtk_52" class="ZW cvjs_handles AcDbLine" cvjs:handle='E27' d="M495.24,1253.13h-25.66" />
<path id="cv_gtk_53" class="ZW cvjs_handles AcDbLine" cvjs:handle='E28' d="M474.39,514.71L474.39,1222.37" />
<path id="cv_gtk_54" class="ZW cvjs_handles AcDbLine" cvjs:handle='E14' d="M932.36,462.18l24.45,-24.45" />
<path id="cv_gtk_55" class="ZW cvjs_handles AcDbLine" cvjs:handle='E15' d="M1701.55,1231.38l24.45,-24.45" />
<path id="cv_gtk_56" class="ZW cvjs_handles AcDbLine" cvjs:handle='E16' d="M975.17,462.89L1700.85,1188.57" />
<path id="cv_gtk_57" class="ZW cvjs_handles AcDbLine" cvjs:handle='DE6' d="M2276.47,783.79L2090.42,822.78" />
<path id="cv_gtk_58" class="ZW cvjs_handles AcDbLine" cvjs:handle='DE8' d="M1872.09,868.54L2060.3,829.09" />
<path id="cv_gtk_59" class="ZW cvjs_handles AcDbLine" cvjs:handle='DEC' d="M2175.5,1192.61L2024.55,1031.37" />
<path id="cv_gtk_60" class="ZW cvjs_handles AcDbLine" cvjs:handle='DED' d="M1719.64,705.7l-21.03,-22.46" />
<path id="cv_gtk_61" class="ZW cvjs_handles AcDbLine" cvjs:handle='DEF' d="M1740.67,728.16L2003.52,1008.91" />
<path id="cv_gtk_62" class="ZW cvjs_handles AcDbLine" cvjs:handle='108B' d="M1620.9,1355.14l-53.98,93.5" />
<path id="cv_gtk_63" class="ZW cvjs_handles AcDbLine" cvjs:handle='1080' d="M628.01,1312.03L884.17,1459.92" />
<path id="cv_gtk_64" class="ZW cvjs_handles AcDbLine" cvjs:handle='1081' d="M913.01,1253.13h26.57" />
<path id="cv_gtk_65" class="ZW cvjs_handles AcDbLine" cvjs:handle='E1D' d="M1706.44,1268.52l46.19,26.67" />
<path id="cv_gtk_66" class="ZW cvjs_handles AcDbLine" cvjs:handle='E1E' d="M1417.99,1768.12l46.19,26.67" />
<path id="cv_gtk_67" class="ZW cvjs_handles AcDbLine" cvjs:handle='E1F' d="M1733.09,1319.43L1475.41,1765.74" />
<path id="cv_gtk_68" class="ZW cvjs_handles AcDbLine" cvjs:handle='E38' d="M510.62,1279.78l-21.23,36.78" />
<path id="cv_gtk_69" class="ZW cvjs_handles AcDbLine" cvjs:handle='E39' d="M1375.96,1779.39l-21.23,36.78" />
<path id="cv_gtk_70" class="ZW cvjs_handles AcDbLine" cvjs:handle='E3A' d="M518.44,1327.78L1330.49,1796.61" />
<path id="cv_gtk_71" class="ZW cvjs_handles AcDbArc" cvjs:handle='1046' d="M1398,1014.79A 369.074918 369.074918 0 0 0 1312 1222.37" /><path id="cv_gtk_72" class="ZW cvjs_handles AcDbArc" cvjs:handle='1061' d="M941.31,815.21A 332.687296 332.687296 0 0 0 1123.08 739.93" /><path id="cv_gtk_73" class="ZW cvjs_handles AcDbArc" cvjs:handle='106A' d="M1011.31,1312.02A 116.659789 116.659789 0 0 0 1023.2 1283.64" /><path id="cv_gtk_74" class="ZW cvjs_handles AcDbArc" cvjs:handle='106B' d="M880.11,1140.53A 116.659789 116.659789 0 0 0 851.73 1152.42" /><path id="cv_gtk_75" class="ZW cvjs_handles AcDbArc" cvjs:handle='106C' d="M1027.26,1253.13A 116.659789 116.659789 0 0 0 910.6 1136.47" /><path id="cv_gtk_76" class="ZW cvjs_handles AcDbArc" cvjs:handle='108C' d="M1460.99,1283.82A 220.945231 220.945231 0 0 0 1543.8 1427.27" /><path id="cv_gtk_77" class="ZW cvjs_handles AcDbArc" cvjs:handle='1082' d="M894.36,1430.35A 408.766127 408.766127 0 0 0 933.61 1283.92" /><path id="cv_gtk_78" class="ZW cvjs_handles AcDbArc" cvjs:handle='1075' d="M1492.69,1694.97A 116.652254 116.652254 0 0 0 1474.06 1670.48" /><path id="cv_gtk_79" class="ZW cvjs_handles AcDbArc" cvjs:handle='1076' d="M1278.59,1722.85A 116.652254 116.652254 0 0 0 1274.7 1753.37" /><path id="cv_gtk_80" class="ZW cvjs_handles AcDbArc" cvjs:handle='1077' d="M1449.68,1651.72A 116.652254 116.652254 0 0 0 1290.33 1694.41" />
</g>
<g style="font-family: arial, gulim, arial, helvetica, sans-serif" stroke="none" fill="#000">
<g font-size="67.842855" stroke="none" fill="#000">
<text id="cv_gtk_81" class="cvjs_handles AcDbMText" cvjs:handle='4B8' transform="scale(0.950000 1) translate(766.72 288.64) " >Sample for Measurement</text>
</g>
</g>
<g style="font-family: arial black, helvetica, sans-serif" stroke="none" fill="#00F">
<g font-size="58.151019" stroke="none" fill="#00F">
<text id="cv_gtk_82" class="cvjs_handles AcDbMText" cvjs:handle='E34' transform="scale(0.950000 1) translate(1397.15 420.17) " font-weight="bold" >250</text>
<text id="cv_gtk_83" class="cvjs_handles AcDbMText" cvjs:handle='DD7' transform="scale(0.950000 1) translate(686.81 420.17) " font-weight="bold" >100</text>
<text id="cv_gtk_84" class="cvjs_handles AcDbMText" cvjs:handle='E2B' transform="scale(0.950000 1) translate(479.11 932.59) rotate(270) " font-weight="bold" >200</text>
<text id="cv_gtk_85" class="cvjs_handles AcDbMText" cvjs:handle='E19' transform="scale(0.950000 1) translate(1303.08 698.45) rotate(45) " font-weight="bold" >282.8427</text>
<text id="cv_gtk_86" class="cvjs_handles AcDbMText" cvjs:handle='1064' transform="scale(0.950000 1) translate(1048.83 789.12) rotate(334) " font-weight="bold" >45&#x00B0;</text>
<text id="cv_gtk_87" class="cvjs_handles AcDbMText" cvjs:handle='106F' transform="scale(0.950000 1) translate(1019.6 1117.31) rotate(45) " font-weight="bold" >90&#x00B0;</text>
<text id="cv_gtk_88" class="cvjs_handles AcDbMText" cvjs:handle='108F' transform="scale(0.950000 1) translate(1556.3 1305.53) rotate(60) " font-weight="bold" >60&#x00B0;</text>
<text id="cv_gtk_89" class="cvjs_handles AcDbMText" cvjs:handle='1085' transform="scale(0.950000 1) translate(933.56 1406.82) rotate(285) " font-weight="bold" >30&#x00B0;</text>
<text id="cv_gtk_90" class="cvjs_handles AcDbMText" cvjs:handle='107A' transform="scale(0.950000 1) translate(1371.29 1634.59) rotate(345) " font-weight="bold" >90&#x00B0;</text>
</g>
<g font-size="58.151019" stroke="none" fill="#00F">
<text id="cv_gtk_91" class="cvjs_handles AcDbMText" cvjs:handle='DE7' transform="scale(0.950000 1) translate(2238.74 795.51) rotate(348) " font-weight="bold" >R50</text>
<text id="cv_gtk_92" class="cvjs_handles AcDbMText" cvjs:handle='E22' transform="scale(0.950000 1) translate(1713.63 1632.29) rotate(300) " font-weight="bold" >150</text>
<text id="cv_gtk_93" class="cvjs_handles AcDbMText" cvjs:handle='E3D' transform="scale(0.950000 1) translate(791.94 1538.32) rotate(30) " font-weight="bold" >259.8076</text>
</g>
</g>
<g style="font-family: arial, pmingliu, arial, helvetica, sans-serif" stroke="none" fill="#00F">
<g font-size="58.151019" stroke="none" fill="#00F">
<text id="cv_gtk_94" class="cvjs_handles AcDbMText" cvjs:handle='DEE' transform="scale(0.950000 1) translate(2185.97 1056.62) rotate(46) " >&#x2205;100</text>
</g>
</g>
<g style="font-family: malgun gothic, malgun gothic, arial, helvetica, sans-serif" stroke="none" fill="#00F">
<g font-size="58.151019" stroke="none" fill="#00F">
<text id="cv_gtk_95" class="cvjs_handles AcDbMText" cvjs:handle='1049' transform="scale(0.950000 1) translate(1371.19 1146.96) rotate(292) " >45&#x00B0;</text>
</g>
</g>
<g style="font-family: arial, helvetica, sans-serif" stroke="none" fill="#7F0000">
<g font-size="180.630000" stroke="none" fill="#7F0000">
<text id="cv_gtk_96" transform="scale(1.111111 1) translate(426.85 1605.6) rotate(330) " >For Demonstration Purposes Only</text>
<text id="cv_gtk_97" transform="scale(1.111111 1) translate(853.7 1605.6) rotate(330) " >Tailor Made Software, Ltd</text>
</g>
</g>
</g>
</g></svg>