<?xml version="1.0" encoding="utf-8" ?> <!DOCTYPE svg PUBLIC "-//W3C//DTD SVG 1.1//EN" "http://www.w3.org/Graphics/SVG/1.1/DTD/svg11.dtd"><svg contentScriptType="text/ecmascript" xmlns:xlink="http://www.w3.org/1999/xlink" zoomAndPan="magnify" contentStyleType="text/css" preserveAspectRatio="xMidYMid meet" width="9882.9990234375" height="6347.5205078125" viewbox="-3294.3330078125 -2115.840087890625 9882.9990234375 6347.5205078125" version="1.1" xmlns="http://www.w3.org/2000/svg" xmlns:cvjs="http://www.tailormade.com/" stroke-linecap="butt" stroke-linejoin="round" fill-rule="evenodd" ><svg id="floorPlan_svg" viewBox="0 0 2500 2115.84" style="position: absolute; display: block; overflow: hidden; width: 1724px; height: 768.203px;" xmlns="http://www.w3.org/2000/svg"><g fill="#ffffff" id="master_floorPlan_svg" style="fill-opacity: 0.01; stroke-width: 0;" transform="matrix(3,0,0,3,-3294.333,-2115.8401)"><rect x="0" y="0" width="3294.3330078125" height="2115.840087890625"></rect></g><g id="main_master_floorPlan_svg"><svg x="0" y="0" width="10000" height="10000" viewBox="0 0 10000 10000"><desc>Created with Snap</desc><defs></defs><!--?xml version="1.0" encoding="utf-8" ?-->
<!-- Generated by AutoXChange 64-bit  V22.12.65 from Tailor Made Software -->
<!-- www.tailormade.com -->

<svg contentscripttype="text/ecmascript" xmlns:xlink="http://www.w3.org/1999/xlink" zoomAndPan="magnify" contentstyletype="text/css" preserveAspectRatio="xMidYMid meet" width="2500" height="2115.84" viewBox="0 0 2500 2115.84" version="1.1" xmlns="http://www.w3.org/2000/svg" xmlns:cvjs="http://www.tailormade.com/" stroke-linecap="butt" stroke-linejoin="round" fill-rule="evenodd">
<defs>
	<style id="cv_styles" type="text/css">
	    
	    svg{ background-color: white; opacity: 1.}
		:root {
		    --tmsMinLineWidth: 0.018030964040105568;
		    --tmsMinDashLength: 0.6;
		    --tmsHLWidth: 0.6;
		    --tmsNumberOfLayouts: 1;
		    --tmsNumberOfSVGViewports: 0;
         --tmsMinFixedLineWidth: 0.6;
		    --tmsbPostFix: 0;
		}
		.tmsPoints {
		    fill: none;
		    stroke-width: var(--tmsMinLineWidth);
		    r: calc(var(--tmsMinLineWidth)/2.0);
		}
		.ZWhl {
		    stroke-width: var(--tmsHLWidth);
		}
		.ZW {
		    stroke-width: var(--tmsMinLineWidth);
		}
		.ZW6 {
		    stroke-width: calc(var(--tmsMinLineWidth)*6);
		}
		.ZW10 {
		    stroke-width: calc(var(--tmsMinLineWidth)*10);
		}
		.ZW20 {
		    stroke-width: calc(var(--tmsMinLineWidth)*20);
		}
		.ZW100 {
		    stroke-width: calc(var(--tmsMinLineWidth)*100);
		}
		.nZW {
		}
		.sLW_0_2{
		    stroke-width: calc(var(--tmsMinFixedLineWidth)*0.333333);
		}
		.sLW_0_6{
		    stroke-width: var(--tmsMinFixedLineWidth);
		}
		.hyperlinks:hover {
		    stroke-width: 3;
		}
		.hyperimage image{
			opacity: 0;
		}
		.hyperimage:hover image{
			opacity: 1;
		}
		.hyperimage:hover path{
			stroke-width: 3;
		}
		.hyperimage:visited{
			color: red;
		}
	</style>
	</defs>
<metadata>
<text id="cadviewer_worldUnits" style="stroke-width: 0;">
{ "globalOrigin": { "x": -136.767903, "y" : -196.014668}, 
						"units": "mm",
						"measurementType": "Metric",
						"lengthType": "Decimal",
						"lengthPrecision": 4,
						"blockUnitsFormat": "Millimeters",
						"svgToWorldUnits": 0.246637,
						"worldToSVGUnits": 4.054541
}
</text>
<text id="cadviewer_drawingCoordinates" style="stroke-width: 0;">
{ "DWG": 
    { "lowerLeft": { "x": -136.767903, "y" : -196.014668}, 
      "upperRight": { "x": 479.824664, "y" : 325.830703} 
    },
 "SVG": 
    { "lowerLeft": { "x": 0.000000, "y" : 2115.921792}, 
      "upperRight": { "x": 2500.000000, "y" : 0.078208} 
    },
 "Drawing Height": 2116
}
</text>
<text id="cadviewer_vqBuilding" style="stroke-width: 0;"></text>
<text id="cadviewer_vqFloor" style="stroke-width: 0;"></text>
<text id="cadviewer_multiPages" style="stroke-width: 0;">
{ "multiPages": 3, 
                   "currentPage":1,
                   "pages" : [
                        { "fileName":"f1899035518", "pageName":"ModelSpace"},
                        { "fileName":"f1899035518_Layout__uBC30_uCE581", "pageName":"\uBC30\uCE581"},
                        { "fileName":"f1899035518_Layout__uBC30_uCE582", "pageName":"\uBC30\uCE582"}
                   ]
}
</text>
</metadata>
<g id="cv_main_drawing">
<g id="layer_0" class="layer_0" cvjs:layername="0" cvjs:plottable="YES" cvjs:status="ON" visibility="visible" display="inline">
<g id="cvclr_1" stroke="none" fill="#00F" opacity="1.">
<path id="cv_2" d="M1941.18,457.82l32.44,5.41l-32.44,5.41v-10.81 Z " style="stroke-linejoin: round; stroke-width: 1px;"></path>
<path id="cv_3" d="M992.42,457.82l-32.44,5.41l32.44,5.41v-10.81 Z " style="stroke-linejoin: round; stroke-width: 1px;"></path>
<path id="cv_4" d="M927.55,457.82l32.44,5.41l-32.44,5.41v-10.81 Z " style="stroke-linejoin: round; stroke-width: 1px;"></path>
<path id="cv_5" d="M586.97,457.82l-32.44,5.41l32.44,5.41v-10.81 Z " style="stroke-linejoin: round; stroke-width: 1px;"></path>
<path id="cv_6" d="M494.71,542.62l5.41,-32.44l5.41,32.44h-10.81 Z " style="stroke-linejoin: round; stroke-width: 1px;"></path>
<path id="cv_7" d="M494.71,1288.66l5.41,32.44l5.41,-32.44h-10.81 Z " style="stroke-linejoin: round; stroke-width: 1px;"></path>
<path id="cv_8" d="M1031.87,484.17l-26.76,-19.11l19.11,26.76l7.65,-7.65 Z " style="stroke-linejoin: round; stroke-width: 1px;"></path>
<path id="cv_9" d="M1796.91,1249.2l19.11,26.76l-26.76,-19.11l7.65,-7.65 Z " style="stroke-linejoin: round; stroke-width: 1px;"></path>
<path id="cv_10" d="M2202.67,862.11l-30.64,11.94l32.86,-1.36l-2.22,-10.58 Z " style="stroke-linejoin: round; stroke-width: 1px;"></path>
<path id="cv_11" d="M1816.84,740.28l18.22,27.37l-26.12,-19.98l7.89,-7.39 Z " style="stroke-linejoin: round; stroke-width: 1px;"></path>
<path id="cv_12" d="M2138.29,1083.61l-26.12,-19.98l18.22,27.37l7.89,-7.39 Z " style="stroke-linejoin: round; stroke-width: 1px;"></path>
<path id="cv_13" d="M1469.83,1066.18l25.94,-20.21l-17.98,27.53l-7.96,-7.32 Z " style="stroke-linejoin: round; stroke-width: 1px;"></path>
<path id="cv_14" d="M1388.56,1288.91l-6.75,32.18l-4.05,-32.63l10.8,0.45 Z " style="stroke-linejoin: round; stroke-width: 1px;"></path>
<path id="cv_15" d="M992.64,864.82l-32.65,-3.9l32.15,-6.9l0.5,10.8 Z " style="stroke-linejoin: round; stroke-width: 1px;"></path>
<path id="cv_16" d="M1180.37,776.04l27.61,-17.86l-20.33,25.85l-7.28,-7.99 Z " style="stroke-linejoin: round; stroke-width: 1px;"></path>
<path id="cv_17" d="M1073.34,1352.53l9.64,-31.44l1.08,32.87l-10.72,-1.43 Z " style="stroke-linejoin: round; stroke-width: 1px;"></path>
<path id="cv_18" d="M927.12,1197.03l32.87,1.08l-31.44,9.64l-1.43,-10.72 Z " style="stroke-linejoin: round; stroke-width: 1px;"></path>
<path id="cv_19" d="M1534.83,1353.83l3.13,-32.73l7.65,31.98l-10.79,0.75 Z " style="stroke-linejoin: round; stroke-width: 1px;"></path>
<path id="cv_20" d="M1630.56,1500.2l23.87,22.62l-29.92,-13.65l6.04,-8.96 Z " style="stroke-linejoin: round; stroke-width: 1px;"></path>
<path id="cv_21" d="M947.66,1510.4l-19.93,26.16l10.37,-31.21l9.56,5.05 Z " style="stroke-linejoin: round; stroke-width: 1px;"></path>
<path id="cv_22" d="M978.84,1353.3l6.62,-32.21l4.18,32.62l-10.8,-0.41 Z " style="stroke-linejoin: round; stroke-width: 1px;"></path>
<path id="cv_23" d="M1550.7,1765.36l-22.41,-24.07l29,15.5l-6.59,8.57 Z " style="stroke-linejoin: round; stroke-width: 1px;"></path>
<path id="cv_24" d="M1342.93,1814.23l17.37,-27.92l-7.37,32.05l-9.99,-4.12 Z " style="stroke-linejoin: round; stroke-width: 1px;"></path>
<path id="cv_25" d="M1822.39,1388.28l20.9,-25.39l-11.54,30.79l-9.36,-5.41 Z " style="stroke-linejoin: round; stroke-width: 1px;"></path>
<path id="cv_26" d="M1550.74,1858.8l-11.54,30.79l20.9,-25.39l-9.36,-5.41 Z " style="stroke-linejoin: round; stroke-width: 1px;"></path>
<path id="cv_27" d="M549.26,1395.1l-30.79,-11.54l25.39,20.9l5.41,-9.36 Z " style="stroke-linejoin: round; stroke-width: 1px;"></path>
<path id="cv_28" d="M1405.35,1889.37l25.39,20.9l-30.79,-11.54l5.41,-9.36 Z " style="stroke-linejoin: round; stroke-width: 1px;"></path>
</g>
<g id="cvclr_29" stroke="#000" fill="none">
<path id="cv_30" class="ZW" d="M554.53,1321.09H959.99L959.99,510.19H554.53L554.53,1321.09M1973.62,915.64H959.99M959.99,1321.09H1770.89M959.99,510.19L1770.89,1321.09M554.53,1321.09L1466.8,1847.79M1770.89,1321.09L1466.8,1847.79M0,0L0,2115.84H2500L2500,0H0" style="stroke-linejoin: round;"></path>
<circle id="cv_31" class="ZW" cx="1973.62" cy="915.64" r="202.727063"></circle>
</g>
<g id="cvclr_32" stroke="#00F" fill="none">
<path id="cv_33" class="ZW" d="M1973.62,883.2L1973.62,458.16M959.99,883.2L959.99,458.16M1941.18,463.23H992.42M959.99,477.75l0,-19.59M554.53,477.75l0,-19.59M927.55,463.23H586.97M522.09,510.19h-27.05M522.09,1321.09h-27.05M500.12,542.62L500.12,1288.66M982.92,487.25l25.78,-25.78M1793.83,1298.16l25.78,-25.78M1028.05,487.99L1793.09,1253.03M2399.93,826.3L2203.78,867.4M1973.62,915.64L2172.04,874.06M2293.48,1257.29L2134.34,1087.31M1812.9,743.97l-22.17,-23.68M1835.07,767.65L2112.17,1063.63M1708.81,1428.63l-56.91,98.58M662.07,1383.18L932.12,1539.1M962.52,1321.09h28.01M1798.98,1337.31l48.7,28.12M1494.89,1864.01l48.7,28.12M1827.08,1390.98L1555.42,1861.5M538.31,1349.18l-22.38,38.77M1450.58,1875.89l-22.38,38.77M546.55,1399.78L1402.64,1894.05" style="stroke-linejoin: round;"></path>
<path id="cv_34" class="ZW" d="M1473.82,1069.83A 389.090582 389.090582 0 0 0 1383.16 1288.67M992.36,859.42A 350.729587 350.729587 0 0 0 1183.99 780.06M1066.15,1383.17A 122.986480 122.986480 0 0 0 1078.69 1353.26M927.84,1202.38A 122.986480 122.986480 0 0 0 897.92 1214.92M1082.97,1321.09A 122.986480 122.986480 0 0 0 959.99 1198.11M1540.22,1353.44A 232.927529 232.927529 0 0 0 1627.52 1504.67M942.86,1507.92A 430.934324 430.934324 0 0 0 984.24 1353.55M1573.64,1786.89A 122.978536 122.978536 0 0 0 1554 1761.07M1347.93,1816.28A 122.978536 122.978536 0 0 0 1343.83 1848.46M1528.29,1741.29A 122.978536 122.978536 0 0 0 1360.3 1786.3" style="stroke-linejoin: round;"></path>
</g>
<g style="font-family: arial, gulim, arial, helvetica, sans-serif" stroke="none" fill="#000">
<g font-size="71.522108" stroke="none" fill="#000">
<text id="cv_35" transform="scale(0.950000 1) translate(808.31 304.3) " style="stroke-width: 0px;">Sample for Measurement</text>
</g>
</g>
<g style="font-family: arial black, helvetica, sans-serif" stroke="none" fill="#00F">
<g font-size="61.304664" stroke="none" fill="#00F">
<text id="cv_36" transform="scale(0.950000 1) translate(1472.92 442.95) " font-weight="bold" style="stroke-width: 0px;">250</text>
<text id="cv_37" transform="scale(0.950000 1) translate(724.06 442.95) " font-weight="bold" style="stroke-width: 0px;">100</text>
<text id="cv_38" transform="scale(0.950000 1) translate(505.1 983.17) rotate(270) " font-weight="bold" style="stroke-width: 0px;">200</text>
<text id="cv_39" transform="scale(0.950000 1) translate(1373.75 736.33) rotate(45) " font-weight="bold" style="stroke-width: 0px;">282.8427</text>
<text id="cv_40" transform="scale(0.950000 1) translate(1105.71 831.92) rotate(334) " font-weight="bold" style="stroke-width: 0px;">45°</text>
<text id="cv_41" transform="scale(0.950000 1) translate(1074.89 1177.9) rotate(45) " font-weight="bold" style="stroke-width: 0px;">90°</text>
<text id="cv_42" transform="scale(0.950000 1) translate(1640.7 1376.33) rotate(60) " font-weight="bold" style="stroke-width: 0px;">60°</text>
<text id="cv_43" transform="scale(0.950000 1) translate(984.19 1483.11) rotate(285) " font-weight="bold" style="stroke-width: 0px;">30°</text>
<text id="cv_44" transform="scale(0.950000 1) translate(1445.66 1723.24) rotate(345) " font-weight="bold" style="stroke-width: 0px;">90°</text>
</g>
<g font-size="61.304664" stroke="none" fill="#00F">
<text id="cv_45" transform="scale(0.950000 1) translate(2360.15 838.65) rotate(348) " font-weight="bold" style="stroke-width: 0px;">R50</text>
<text id="cv_46" transform="scale(0.950000 1) translate(1806.57 1720.81) rotate(300) " font-weight="bold" style="stroke-width: 0px;">150</text>
<text id="cv_47" transform="scale(0.950000 1) translate(834.89 1621.74) rotate(30) " font-weight="bold" style="stroke-width: 0px;">259.8076</text>
</g>
</g>
<g style="font-family: arial, pmingliu, arial, helvetica, sans-serif" stroke="none" fill="#00F">
<g font-size="61.304664" stroke="none" fill="#00F">
<text id="cv_48" transform="scale(0.950000 1) translate(2304.52 1113.92) rotate(46) " style="stroke-width: 0px;">∅100</text>
</g>
</g>
<g style="font-family: malgun gothic, malgun gothic, arial, helvetica, sans-serif" stroke="none" fill="#00F">
<g font-size="61.304664" stroke="none" fill="#00F">
<text id="cv_49" transform="scale(0.950000 1) translate(1445.55 1209.16) rotate(292) " style="stroke-width: 0px;">45°</text>
</g>
</g>
<g style="font-family: arial, helvetica, sans-serif" stroke="none" fill="#7F0000">
<g font-size="190.425923" stroke="none" fill="#7F0000">
<text id="cv_50" transform="scale(1.111111 1) translate(450 1692.67) rotate(330) " style="stroke-width: 0px;">For Demonstration Purposes Only</text>
<text id="cv_51" transform="scale(1.111111 1) translate(900 1692.67) rotate(330) " style="stroke-width: 0px;">Tailor Made Software, Ltd</text>
</g>
</g>
</g>
</g><desc>Created with Snap</desc></svg></svg></g><g></g><g style="display: inline;"></g><g></g><g></g></svg></svg>