<svg version="1.1" id="Layer_1" xmlns="http://www.w3.org/2000/svg" xmlns:xlink="http://www.w3.org/1999/xlink" x="0px" y="0px"
	 width="100%" viewBox="0 0 92 92" enable-background="new 0 0 92 92" xml:space="preserve">
<path fill="#060303" opacity="1.000000" stroke="none" 
	d="
M90.000000,1.000000 
	C90.958076,1.000000 91.916161,1.000000 93.000000,1.000000 
	C93.000000,3.672023 93.000000,6.344964 92.726456,9.692803 
	C92.015610,11.591753 91.578300,12.815803 91.118156,14.504205 
	C91.066833,20.311781 91.038345,25.655005 90.667038,31.033764 
	C89.212090,32.371231 88.099960,33.673164 86.737213,35.169876 
	C86.306168,36.179047 86.125732,36.993435 85.971451,38.109352 
	C86.010094,38.612259 86.022591,38.813644 85.785530,39.259087 
	C84.075127,42.670673 82.614273,45.838196 81.076653,49.385963 
	C78.490829,55.865395 76.143883,62.040565 73.348053,68.005333 
	C72.722473,69.339989 70.523315,69.937073 68.900131,70.547447 
	C68.119759,68.485939 67.487877,66.750710 66.812477,64.646027 
	C63.858727,57.812981 60.948494,51.349380 57.901390,44.552063 
	C55.214493,38.184750 52.664463,32.151157 50.004478,25.798161 
	C49.238991,25.936773 48.583450,26.394789 47.613808,27.019371 
	C44.918362,32.440311 42.537018,37.694687 40.099300,43.396477 
	C40.093063,46.248310 40.143196,48.652733 40.119980,51.086708 
	C40.046631,51.116268 39.961769,50.982803 39.576675,50.893280 
	C39.216412,47.243118 39.184029,43.680786 39.289326,40.122532 
	C39.344978,38.241879 39.640354,36.368324 39.935623,33.407253 
	C37.600216,35.283276 36.504524,36.163441 35.424976,37.030636 
	C34.082714,35.866592 32.982967,34.912868 31.933773,33.568310 
	C35.778214,19.230968 46.003647,11.616319 58.503365,6.116317 
	C41.078449,6.116317 23.653530,6.116317 5.751893,6.116317 
	C5.751893,10.881181 5.751893,15.504543 4.901919,20.075649 
	C3.485587,19.984123 2.919228,19.944849 2.399812,19.602089 
	C2.267314,18.538591 2.087873,17.778578 1.967524,16.621433 
	C1.962686,15.161400 1.898755,14.098498 1.886760,12.608123 
	C1.935292,10.460706 1.931888,8.740761 1.947371,6.647212 
	C2.015360,5.279711 2.064464,4.285814 2.371238,3.121316 
	C3.085940,2.300476 3.542970,1.650238 4.000000,1.000000 
	C4.000000,1.000000 4.500000,1.000000 4.970200,1.313028 
	C9.276311,2.014484 13.112222,2.402912 17.415775,2.856663 
	C28.600637,2.883774 39.317856,2.845561 50.499100,2.849285 
	C57.526363,3.245313 64.108650,4.065769 70.646538,3.798853 
	C75.461090,3.602295 80.217621,1.984498 85.000000,1.000000 
	C85.000000,1.000000 85.500000,1.000000 85.937408,1.284499 
	C87.583214,1.379332 88.791603,1.189666 90.000000,1.000000 
M79.202377,15.924635 
	C72.870728,14.497579 66.623497,14.233933 60.398212,16.970749 
	C61.501484,20.191282 62.337250,23.139158 63.510952,25.945709 
	C65.613235,30.972702 67.918930,35.914631 70.136147,41.528454 
	C70.587067,41.950573 71.037987,42.372696 71.875664,43.156876 
	C71.875664,42.124569 71.875664,41.543732 72.205971,40.310291 
	C75.190872,33.247181 78.175766,26.184072 81.730980,18.731279 
	C81.154396,17.870544 80.577812,17.009808 79.202377,15.924635 
z"/>
<path fill="#040203" opacity="1.000000" stroke="none" 
	d="
M31.883223,33.959141 
	C32.982967,34.912868 34.082714,35.866592 35.424976,37.030636 
	C36.504524,36.163441 37.600216,35.283276 39.935623,33.407253 
	C39.640354,36.368324 39.344978,38.241879 39.289326,40.122532 
	C39.184029,43.680786 39.216412,47.243118 39.603474,51.278145 
	C41.539639,55.317204 43.008286,58.906914 44.599453,62.441467 
	C48.206356,70.453674 54.603966,75.023872 63.155655,77.453979 
	C64.875481,77.879852 66.394394,77.983360 68.107666,78.332863 
	C68.899086,78.609543 69.496140,78.640228 70.442986,78.712112 
	C71.495819,78.731773 72.198860,78.710228 73.202240,78.789688 
	C74.035797,78.627144 74.569023,78.363602 75.417236,78.054886 
	C76.149918,77.939468 76.567619,77.869217 77.353683,77.869843 
	C80.772385,76.275055 83.822731,74.609398 87.208511,72.931511 
	C88.661697,71.957497 89.779449,70.995720 90.944267,70.460312 
	C91.054955,72.600708 91.118568,74.314720 91.118935,76.428741 
	C91.375061,78.551918 91.694443,80.275101 92.011917,82.414810 
	C91.984154,84.217758 91.958290,85.604172 91.681732,87.225784 
	C91.290741,88.594513 91.150436,89.728050 90.600113,90.898499 
	C89.103378,91.056351 88.016670,91.177299 86.522980,91.226036 
	C82.755447,91.396156 79.394882,91.638504 75.788170,91.538284 
	C72.036140,91.155258 68.530273,91.114784 64.724686,90.757248 
	C61.616623,90.171448 58.808270,89.902695 55.923546,89.190674 
	C56.613323,88.117340 57.379463,87.487289 57.472561,87.410728 
	C52.609322,84.102577 47.425179,81.347580 43.240143,77.504562 
	C39.335667,73.919182 36.437443,71.140236 30.477715,73.826706 
	C22.926470,77.230583 14.770080,79.273628 6.943954,82.095703 
	C4.086032,83.126251 4.205672,86.101303 6.928219,88.488342 
	C5.252891,88.865601 3.641241,88.928429 1.919009,88.762863 
	C1.538951,88.356316 1.269475,88.178162 1.000000,88.000000 
	C1.000000,87.250000 1.000000,86.500000 1.320627,85.155571 
	C2.096935,82.493294 2.823026,80.443001 2.958546,78.354378 
	C3.398118,71.579697 3.621206,64.790977 4.225241,57.999290 
	C4.720925,57.978943 4.919029,57.966969 5.462250,58.106934 
	C6.542697,58.495861 7.412643,59.115211 7.992642,58.911015 
	C14.142966,56.745663 20.417366,54.802250 26.264462,51.982498 
	C28.112892,51.091103 30.098549,47.507454 29.730566,45.597218 
	C28.882977,41.197311 30.496708,37.698116 31.883223,33.959141 
M86.034927,85.460632 
	C85.317619,85.989868 84.600319,86.519112 82.806938,87.842300 
	C87.622459,86.538338 87.622459,86.538338 86.034927,85.460632 
z"/>
<path fill="#110B0A" opacity="1.000000" stroke="none" 
	d="
M5.117133,57.954998 
	C4.919029,57.966969 4.720925,57.978943 3.955301,57.853951 
	C2.591855,56.811321 1.795928,55.905659 1.000001,55.000000 
	C1.000000,52.299038 1.000000,49.598076 1.334231,46.188126 
	C1.724936,38.644863 1.781410,31.810587 1.890505,24.607250 
	C2.079707,22.793983 2.216288,21.349779 2.352869,19.905577 
	C2.919228,19.944849 3.485587,19.984123 4.990898,20.433270 
	C5.950222,32.140224 5.994276,43.437397 5.952621,54.734253 
	C5.948659,55.808849 5.408410,56.881462 5.117133,57.954998 
z"/>
<path fill="#070604" opacity="1.000000" stroke="none" 
	d="
M26.999998,93.000000 
	C26.250000,93.000000 25.500000,93.000000 24.691387,92.619675 
	C21.759829,91.753532 18.886883,91.267708 16.010273,90.419846 
	C16.002792,89.333481 15.998980,88.609146 16.448774,87.755493 
	C28.741411,87.750679 40.581432,87.827400 52.417957,88.072701 
	C53.617496,88.097565 54.795982,89.138397 55.530937,89.789665 
	C53.379581,90.264267 51.681522,90.656960 49.517906,91.001953 
	C42.608532,90.958946 36.162506,90.882988 29.723341,91.058678 
	C28.798592,91.083900 27.906956,92.322777 26.999998,93.000000 
z"/>
<path fill="#8A8784" opacity="1.000000" stroke="none" 
	d="
M27.468655,93.000000 
	C27.906956,92.322777 28.798592,91.083900 29.723341,91.058678 
	C36.162506,90.882988 42.608532,90.958946 49.763084,91.350540 
	C55.324005,91.522659 60.174202,91.298485 65.024399,91.074303 
	C68.530273,91.114784 72.036140,91.155258 75.778748,91.818054 
	C76.010315,92.626915 76.005157,92.813454 76.000000,93.000000 
	C59.979103,93.000000 43.958210,93.000000 27.468655,93.000000 
z"/>
<path fill="#403F3C" opacity="1.000000" stroke="none" 
	d="
M84.531342,1.000000 
	C80.217621,1.984498 75.461090,3.602295 70.646538,3.798853 
	C64.108650,4.065769 57.526363,3.245313 50.488304,2.549736 
	C50.008995,1.805501 50.004498,1.402750 50.000000,1.000000 
	C61.354229,1.000000 72.708458,1.000000 84.531342,1.000000 
z"/>
<path fill="#363834" opacity="1.000000" stroke="none" 
	d="
M49.531342,1.000000 
	C50.004498,1.402750 50.008995,1.805501 50.024284,2.507799 
	C39.317856,2.845561 28.600637,2.883774 17.431885,2.559980 
	C16.986900,1.798649 16.993450,1.399325 17.000000,1.000000 
	C27.687561,1.000000 38.375122,1.000000 49.531342,1.000000 
z"/>
<path fill="#3A3834" opacity="1.000000" stroke="none" 
	d="
M1.000001,55.468658 
	C1.795928,55.905659 2.591855,56.811321 3.657721,57.862320 
	C3.621206,64.790977 3.398118,71.579697 2.958546,78.354378 
	C2.823026,80.443001 2.096935,82.493294 1.320627,84.780571 
	C1.000000,75.312439 1.000000,65.624878 1.000001,55.468658 
z"/>
<path fill="#57320F" opacity="1.000000" stroke="none" 
	d="
M91.009865,30.998228 
	C91.038345,25.655005 91.066833,20.311781 91.426460,14.492031 
	C92.171738,14.010336 92.585869,14.005168 93.000000,14.000000 
	C93.000000,20.021151 93.000000,26.042303 92.729767,32.536461 
	C92.279480,33.016228 92.099426,33.022987 91.702301,32.839439 
	C91.326767,32.098827 91.168320,31.548529 91.009865,30.998228 
z"/>
<path fill="#85837F" opacity="1.000000" stroke="none" 
	d="
M16.013939,90.781883 
	C18.886883,91.267708 21.759829,91.753532 24.316387,92.619675 
	C17.645601,93.000000 11.291203,93.000000 4.459755,92.781250 
	C3.982705,92.562500 3.898297,92.132866 4.322531,92.074608 
	C8.502490,91.604858 12.258215,91.193375 16.013939,90.781883 
z"/>
<path fill="#5B534C" opacity="1.000000" stroke="none" 
	d="
M1.837884,24.976313 
	C1.781410,31.810587 1.724936,38.644863 1.334231,45.739571 
	C1.000000,39.312355 1.000000,32.624710 1.209462,25.462296 
	C1.418924,24.987526 1.837884,24.976313 1.837884,24.976313 
z"/>
<path fill="#454540" opacity="1.000000" stroke="none" 
	d="
M16.539364,1.000000 
	C16.993450,1.399325 16.986900,1.798649 16.964241,2.494657 
	C13.112222,2.402912 9.276311,2.014484 5.220200,1.313028 
	C8.692909,1.000000 12.385818,1.000000 16.539364,1.000000 
z"/>
<path fill="#57574B" opacity="1.000000" stroke="none" 
	d="
M91.182190,76.028740 
	C91.118568,74.314720 91.054955,72.600708 90.999557,70.097137 
	C91.378609,67.920074 91.749443,66.532562 92.339905,65.106918 
	C92.559532,65.068802 93.000000,65.000000 93.000000,65.000000 
	C93.000000,68.361526 93.000000,71.723061 92.753784,75.537354 
	C92.507576,75.990128 92.015633,76.013985 91.807236,76.015594 
	C91.598831,76.017204 91.182182,76.028740 91.182190,76.028740 
z"/>
<path fill="#3A3221" opacity="1.000000" stroke="none" 
	d="
M93.000000,43.000000 
	C93.000000,48.688042 93.000000,54.376080 92.763443,60.526585 
	C92.526886,60.989048 92.054062,60.969273 92.034210,60.572365 
	C91.972816,59.113739 91.931282,58.052021 91.919296,56.527084 
	C92.004730,51.696415 92.060600,47.328972 92.337463,42.968491 
	C92.558464,42.975456 93.000000,43.000000 93.000000,43.000000 
z"/>
<path fill="#959697" opacity="1.000000" stroke="none" 
	d="
M76.458069,93.000000 
	C76.005157,92.813454 76.010315,92.626915 76.024902,92.160614 
	C79.394882,91.638504 82.755447,91.396156 86.523621,91.509987 
	C86.954155,92.244102 86.977081,92.622055 87.000000,93.000000 
	C83.638710,93.000000 80.277428,93.000000 76.458069,93.000000 
z"/>
<path fill="#655E56" opacity="1.000000" stroke="none" 
	d="
M1.890505,24.607250 
	C1.837884,24.976313 1.418924,24.987526 1.209462,24.993763 
	C1.000000,22.629442 1.000000,20.258884 1.227189,17.444817 
	C1.454379,17.001308 1.908431,17.018566 1.908431,17.018566 
	C2.087873,17.778578 2.267314,18.538591 2.399812,19.602089 
	C2.216288,21.349779 2.079707,22.793983 1.890505,24.607250 
z"/>
<path fill="#140E07" opacity="1.000000" stroke="none" 
	d="
M91.010132,90.861595 
	C91.150436,89.728050 91.290741,88.594513 91.789581,87.494995 
	C92.432083,88.019348 92.716042,88.509674 93.000000,89.000000 
	C93.000000,90.333336 93.000000,91.666664 92.570160,92.688705 
	C91.763596,91.872139 91.386871,91.366867 91.010132,90.861595 
z"/>
<path fill="#656357" opacity="1.000000" stroke="none" 
	d="
M91.118927,76.428741 
	C91.182182,76.028740 91.598831,76.017204 91.805412,76.351852 
	C92.341331,77.457672 92.670662,78.228836 93.000000,79.000000 
	C93.000000,79.750000 93.000000,80.500000 92.753433,81.634567 
	C92.506874,82.019127 92.013824,81.998276 92.013824,81.998276 
	C91.694443,80.275101 91.375061,78.551918 91.118927,76.428741 
z"/>
<path fill="#7A7A77" opacity="1.000000" stroke="none" 
	d="
M90.600113,90.898499 
	C91.386871,91.366867 91.763596,91.872139 92.070160,92.688705 
	C90.611107,93.000000 89.222221,93.000000 87.416664,93.000000 
	C86.977081,92.622055 86.954155,92.244102 86.930588,91.582207 
	C88.016670,91.177299 89.103378,91.056351 90.600113,90.898499 
z"/>
<path fill="#8D8978" opacity="1.000000" stroke="none" 
	d="
M92.011917,82.414810 
	C92.013824,81.998276 92.506874,82.019127 92.753433,82.009567 
	C93.000000,84.041664 93.000000,86.083336 93.000000,88.562500 
	C92.716042,88.509674 92.432083,88.019348 92.040276,87.259811 
	C91.958290,85.604172 91.984154,84.217758 92.011917,82.414810 
z"/>
<path fill="#473D32" opacity="1.000000" stroke="none" 
	d="
M93.000000,42.571278 
	C93.000000,43.000000 92.558464,42.975456 92.296318,42.546421 
	C92.019180,40.418480 92.004181,38.719578 92.241898,37.015739 
	C92.663078,37.007202 92.831543,37.003601 93.000000,37.000000 
	C93.000000,38.714184 93.000000,40.428371 93.000000,42.571278 
z"/>
<path fill="#F7F5F4" opacity="1.000000" stroke="none" 
	d="
M3.898299,92.132858 
	C3.898297,92.132866 3.982705,92.562500 3.991353,92.781250 
	C2.692967,92.793335 0.487987,93.932930 1.215307,90.584106 
	C1.430614,90.169189 1.892065,90.202599 2.014335,90.462112 
	C2.723837,91.192039 3.311069,91.662453 3.898299,92.132858 
z"/>
<path fill="#472806" opacity="1.000000" stroke="none" 
	d="
M93.000000,13.600004 
	C92.585869,14.005168 92.171738,14.010336 91.449303,14.027678 
	C91.578300,12.815803 92.015610,11.591753 92.726456,10.183851 
	C93.000000,11.066669 93.000000,12.133339 93.000000,13.600004 
z"/>
<path fill="#625B50" opacity="1.000000" stroke="none" 
	d="
M1.928485,7.020817 
	C1.931888,8.740761 1.935292,10.460706 1.678629,12.598171 
	C1.418563,13.015693 1.000000,13.000000 1.000000,13.000000 
	C1.000000,11.285625 1.000000,9.571249 1.232277,7.426700 
	C1.464554,6.996526 1.928485,7.020817 1.928485,7.020817 
z"/>
<path fill="#EAE7E3" opacity="1.000000" stroke="none" 
	d="
M3.500000,1.000000 
	C3.542970,1.650238 3.085940,2.300476 2.068727,3.140338 
	C1.339030,3.219975 1.169515,3.109987 1.000000,3.000000 
	C1.666667,2.333333 2.333333,1.666667 3.500000,1.000000 
z"/>
<path fill="#23251E" opacity="1.000000" stroke="none" 
	d="
M92.054062,60.969273 
	C92.054062,60.969273 92.526886,60.989048 92.763443,60.994522 
	C93.000000,62.066570 93.000000,63.133137 93.000000,64.599854 
	C93.000000,65.000000 92.559532,65.068802 92.301796,64.688797 
	C92.047394,63.195625 92.050728,62.082447 92.054062,60.969273 
z"/>
<path fill="#614728" opacity="1.000000" stroke="none" 
	d="
M93.000000,36.600182 
	C92.831543,37.003601 92.663078,37.007202 92.218643,37.029690 
	C91.942680,37.048573 91.889221,37.037857 91.906586,36.762871 
	C91.898605,36.305962 91.873245,36.124031 91.872284,35.578289 
	C91.904236,34.486237 91.911804,33.757992 91.919373,33.029751 
	C92.099426,33.022987 92.279480,33.016228 92.729767,33.004734 
	C93.000000,34.066788 93.000000,35.133575 93.000000,36.600182 
z"/>
<path fill="#726D67" opacity="1.000000" stroke="none" 
	d="
M1.000000,13.400146 
	C1.000000,13.000000 1.418563,13.015693 1.626693,13.025644 
	C1.898755,14.098498 1.962686,15.161400 1.967524,16.621433 
	C1.908431,17.018566 1.454379,17.001308 1.227189,17.000654 
	C1.000000,15.933431 1.000000,14.866860 1.000000,13.400146 
z"/>
<path fill="#4D4943" opacity="1.000000" stroke="none" 
	d="
M1.000000,3.400027 
	C1.169515,3.109987 1.339030,3.219975 1.811056,3.310940 
	C2.064464,4.285814 2.015360,5.279711 1.947371,6.647212 
	C1.928485,7.020817 1.464554,6.996526 1.232277,6.998263 
	C1.000000,5.933351 1.000000,4.866703 1.000000,3.400027 
z"/>
<path fill="#38383A" opacity="1.000000" stroke="none" 
	d="
M89.600006,1.000000 
	C88.791603,1.189666 87.583214,1.379332 86.187408,1.284499 
	C87.066673,1.000000 88.133339,1.000000 89.600006,1.000000 
z"/>
<path fill="#7E7662" opacity="1.000000" stroke="none" 
	d="
M93.000000,78.625000 
	C92.670662,78.228836 92.341331,77.457672 92.013809,76.350250 
	C92.015633,76.013985 92.507576,75.990128 92.753784,75.995064 
	C93.000000,76.750000 93.000000,77.500000 93.000000,78.625000 
z"/>
<path fill="#32312E" opacity="1.000000" stroke="none" 
	d="
M1.892065,90.202599 
	C1.892065,90.202599 1.430614,90.169189 1.215307,90.084595 
	C1.000000,89.555557 1.000000,89.111107 1.000000,88.333328 
	C1.269475,88.178162 1.538951,88.356316 1.893536,89.066765 
	C1.949785,89.800232 1.920925,90.001419 1.892065,90.202599 
z"/>
<path fill="#FEFEFE" opacity="1.000000" stroke="none" 
	d="
M5.462250,58.106934 
	C5.408410,56.881462 5.948659,55.808849 5.952621,54.734253 
	C5.994276,43.437397 5.950222,32.140224 5.840872,20.485523 
	C5.751893,15.504543 5.751893,10.881181 5.751893,6.116317 
	C23.653530,6.116317 41.078449,6.116317 58.503365,6.116317 
	C46.003647,11.616319 35.778214,19.230968 31.933773,33.568310 
	C30.496708,37.698116 28.882977,41.197311 29.730566,45.597218 
	C30.098549,47.507454 28.112892,51.091103 26.264462,51.982498 
	C20.417366,54.802250 14.142966,56.745663 7.992642,58.911015 
	C7.412643,59.115211 6.542697,58.495861 5.462250,58.106934 
z"/>
<path fill="#FB5F0B" opacity="1.000000" stroke="none" 
	d="
M62.954742,77.131607 
	C54.603966,75.023872 48.206356,70.453674 44.599453,62.441467 
	C43.008286,58.906914 41.539639,55.317204 39.988564,51.367668 
	C39.961769,50.982803 40.046631,51.116268 40.397881,50.812931 
	C40.551311,47.989414 40.353489,45.469238 40.155670,42.949059 
	C42.537018,37.694687 44.918362,32.440311 47.916954,27.043953 
	C49.060947,26.640497 49.587692,26.379030 50.114433,26.117561 
	C52.664463,32.151157 55.214493,38.184750 57.884163,44.960217 
	C60.236458,51.802170 62.429932,57.917381 64.769638,63.976120 
	C64.976326,64.511322 66.137917,64.677765 66.855995,65.015480 
	C67.487877,66.750710 68.119759,68.485939 68.914871,70.895126 
	C70.603790,74.222717 68.834282,75.606903 66.670319,76.943069 
	C65.212624,76.990776 64.083679,77.061195 62.954742,77.131607 
z"/>
<path fill="#F55B09" opacity="1.000000" stroke="none" 
	d="
M70.139603,40.892113 
	C67.918930,35.914631 65.613235,30.972702 63.510952,25.945709 
	C62.337250,23.139158 61.501484,20.191282 60.398212,16.970749 
	C66.623497,14.233933 72.870728,14.497579 79.750458,16.323181 
	C80.585915,17.521471 80.873291,18.321215 81.160660,19.120960 
	C78.175766,26.184072 75.190872,33.247181 71.751259,40.634033 
	C70.910896,40.935883 70.525253,40.913998 70.139603,40.892113 
z"/>
<path fill="#F65F07" opacity="1.000000" stroke="none" 
	d="
M66.999084,76.965782 
	C68.834282,75.606903 70.603790,74.222717 69.063362,71.221405 
	C70.523315,69.937073 72.722473,69.339989 73.348053,68.005333 
	C76.143883,62.040565 78.490829,55.865395 81.416199,49.379555 
	C83.511154,49.330719 85.189804,49.668537 86.907898,50.346283 
	C86.921753,51.141193 86.896149,51.596172 86.615173,52.339554 
	C86.544403,55.406677 86.729019,58.185402 86.951027,61.336891 
	C87.618195,62.835743 88.247963,63.961826 88.765083,65.445183 
	C88.059319,68.182884 87.466194,70.563309 86.873070,72.943741 
	C83.822731,74.609398 80.772385,76.275055 77.037018,77.621468 
	C73.234352,77.190079 70.116714,77.077934 66.999084,76.965782 
z"/>
<path fill="#0E0602" opacity="1.000000" stroke="none" 
	d="
M91.702301,32.839439 
	C91.911804,33.757992 91.904236,34.486237 91.735977,35.694359 
	C91.679932,36.462109 91.784576,36.749981 91.889221,37.037857 
	C91.889221,37.037857 91.942680,37.048573 91.965935,37.034622 
	C92.004181,38.719578 92.019180,40.418480 92.075317,42.539455 
	C92.060600,47.328972 92.004730,51.696415 91.594604,56.468166 
	C90.539047,55.575523 89.837746,54.278576 89.089706,52.518291 
	C89.026527,47.038376 89.010071,42.021793 89.228241,36.809772 
	C88.637856,36.067917 87.812843,35.521503 86.987839,34.975094 
	C88.099960,33.673164 89.212090,32.371231 90.667038,31.033764 
	C91.168320,31.548529 91.326767,32.098827 91.702301,32.839439 
z"/>
<path fill="#E06A26" opacity="1.000000" stroke="none" 
	d="
M66.812477,64.646027 
	C66.137917,64.677765 64.976326,64.511322 64.769638,63.976120 
	C62.429932,57.917381 60.236458,51.802170 58.021034,45.293934 
	C60.948494,51.349380 63.858727,57.812981 66.812477,64.646027 
z"/>
<path fill="#F0650D" opacity="1.000000" stroke="none" 
	d="
M86.868446,50.006351 
	C85.189804,49.668537 83.511154,49.330719 81.492966,48.999313 
	C82.614273,45.838196 84.075127,42.670673 86.012947,39.373386 
	C86.688255,39.513927 86.886597,39.784229 87.048836,40.502945 
	C86.964638,43.969688 86.916542,46.988022 86.868446,50.006351 
z"/>
<path fill="#1D0100" opacity="1.000000" stroke="none" 
	d="
M86.737213,35.169876 
	C87.812843,35.521503 88.637856,36.067917 89.004349,36.797798 
	C88.545830,36.981270 88.099571,36.936932 87.958450,36.734734 
	C87.193321,36.957634 86.569313,37.382729 85.945305,37.807823 
	C86.125732,36.993435 86.306168,36.179047 86.737213,35.169876 
z"/>
<path fill="#913D19" opacity="1.000000" stroke="none" 
	d="
M40.099300,43.396477 
	C40.353489,45.469238 40.551311,47.989414 40.471230,50.783371 
	C40.143196,48.652733 40.093063,46.248310 40.099300,43.396477 
z"/>
<path fill="#C16028" opacity="1.000000" stroke="none" 
	d="
M85.971451,38.109352 
	C86.569313,37.382729 87.193321,36.957634 87.924500,37.078148 
	C87.716087,38.434017 87.400513,39.244270 87.084938,40.054527 
	C86.886597,39.784229 86.688255,39.513927 86.262497,39.129326 
	C86.022591,38.813644 86.010094,38.612259 85.971451,38.109352 
z"/>
<path fill="#D17F3E" opacity="1.000000" stroke="none" 
	d="
M50.004482,25.798161 
	C49.587692,26.379030 49.060947,26.640497 48.231056,26.877384 
	C48.583450,26.394789 49.238991,25.936773 50.004482,25.798161 
z"/>
<path fill="#A95B31" opacity="1.000000" stroke="none" 
	d="
M81.445824,18.926121 
	C80.873291,18.321215 80.585915,17.521471 80.149887,16.435398 
	C80.577812,17.009808 81.154396,17.870544 81.445824,18.926121 
z"/>
<path fill="#D47642" opacity="1.000000" stroke="none" 
	d="
M70.137878,41.210281 
	C70.525253,40.913998 70.910896,40.935883 71.586105,40.960335 
	C71.875664,41.543732 71.875664,42.124569 71.875664,43.156876 
	C71.037987,42.372696 70.587067,41.950573 70.137878,41.210281 
z"/>
<path fill="#FDFDFD" opacity="1.000000" stroke="none" 
	d="
M55.984234,89.707756 
	C54.795982,89.138397 53.617496,88.097565 52.417957,88.072701 
	C40.581432,87.827400 28.741411,87.750679 16.011612,87.621208 
	C12.411194,87.802132 9.701546,87.988022 6.991898,88.173904 
	C4.205672,86.101303 4.086032,83.126251 6.943954,82.095703 
	C14.770080,79.273628 22.926470,77.230583 30.477715,73.826706 
	C36.437443,71.140236 39.335667,73.919182 43.240143,77.504562 
	C47.425179,81.347580 52.609322,84.102577 57.472561,87.410728 
	C57.379463,87.487289 56.613323,88.117340 55.926857,89.235229 
	C56.006538,89.723068 55.984234,89.707756 55.984234,89.707756 
z"/>
<path fill="#1D0100" opacity="1.000000" stroke="none" 
	d="
M89.136429,52.981628 
	C89.837746,54.278576 90.539047,55.575523 91.565048,56.931389 
	C91.931282,58.052021 91.972816,59.113739 92.034210,60.572365 
	C92.050728,62.082447 92.047394,63.195625 92.082169,64.726921 
	C91.749443,66.532562 91.378609,67.920074 90.952484,69.670769 
	C89.779449,70.995720 88.661697,71.957497 87.208511,72.931511 
	C87.466194,70.563309 88.059319,68.182884 88.816971,64.980858 
	C89.033142,60.433384 89.084785,56.707508 89.136429,52.981628 
z"/>
<path fill="#0D0C0B" opacity="1.000000" stroke="none" 
	d="
M6.928219,88.488342 
	C9.701546,87.988022 12.411194,87.802132 15.558004,87.750534 
	C15.998980,88.609146 16.002792,89.333481 16.010273,90.419846 
	C12.258215,91.193375 8.502490,91.604858 4.322533,92.074600 
	C3.311069,91.662453 2.723837,91.192039 2.014335,90.462112 
	C1.920925,90.001419 1.949785,89.800232 2.004118,89.295151 
	C3.641241,88.928429 5.252891,88.865601 6.928219,88.488342 
z"/>
<path fill="#181714" opacity="1.000000" stroke="none" 
	d="
M55.530937,89.789665 
	C55.984234,89.707756 56.006538,89.723068 56.003227,89.678505 
	C58.808270,89.902695 61.616623,90.171448 64.724686,90.757248 
	C60.174202,91.298485 55.324005,91.522659 50.228634,91.398254 
	C51.681522,90.656960 53.379581,90.264267 55.530937,89.789665 
z"/>
<path fill="#EE6322" opacity="1.000000" stroke="none" 
	d="
M66.670319,76.943069 
	C70.116714,77.077934 73.234352,77.190079 76.668655,77.550598 
	C76.567619,77.869217 76.149918,77.939468 75.119354,78.024170 
	C73.971634,78.255325 73.436768,78.472008 72.901901,78.688690 
	C72.198860,78.710228 71.495819,78.731773 70.222939,78.513260 
	C69.073166,78.211090 68.493240,78.148979 67.913307,78.086868 
	C66.394394,77.983360 64.875481,77.879852 63.155655,77.453979 
	C64.083679,77.061195 65.212624,76.990776 66.670319,76.943069 
z"/>
<path fill="#FCFCFB" opacity="1.000000" stroke="none" 
	d="
M86.366814,85.252380 
	C87.622459,86.538338 87.622459,86.538338 82.806938,87.842300 
	C84.600319,86.519112 85.317619,85.989868 86.366814,85.252380 
z"/>
<path fill="#9D3307" opacity="1.000000" stroke="none" 
	d="
M68.107666,78.332863 
	C68.493240,78.148979 69.073166,78.211090 69.873146,78.472046 
	C69.496140,78.640228 68.899086,78.609543 68.107666,78.332863 
z"/>
<path fill="#9D3307" opacity="1.000000" stroke="none" 
	d="
M73.202240,78.789688 
	C73.436768,78.472008 73.971634,78.255325 74.804382,78.069351 
	C74.569023,78.363602 74.035797,78.627144 73.202240,78.789688 
z"/>
<path fill="#3C1F06" opacity="1.000000" stroke="none" 
	d="
M91.906586,36.762871 
	C91.784576,36.749981 91.679932,36.462109 91.711594,36.058167 
	C91.873245,36.124031 91.898605,36.305962 91.906586,36.762871 
z"/>
<path fill="#902B01" opacity="1.000000" stroke="none" 
	d="
M89.089706,52.518291 
	C89.084785,56.707508 89.033142,60.433384 88.929611,64.623589 
	C88.247963,63.961826 87.618195,62.835743 86.991447,60.893089 
	C86.953163,57.401398 86.911858,54.726273 86.870544,52.051151 
	C86.896149,51.596172 86.921753,51.141193 86.907898,50.346283 
	C86.916542,46.988022 86.964638,43.969688 87.048836,40.502945 
	C87.400513,39.244270 87.716087,38.434017 88.065613,37.280346 
	C88.099571,36.936932 88.545830,36.981270 88.769722,36.993240 
	C89.010071,42.021793 89.026527,47.038376 89.089706,52.518291 
z"/>
<path fill="#F0650D" opacity="1.000000" stroke="none" 
	d="
M86.615173,52.339554 
	C86.911858,54.726273 86.953163,57.401398 86.954048,60.520321 
	C86.729019,58.185402 86.544403,55.406677 86.615173,52.339554 
z"/>
</svg>